<?xml version="1.0" standalone="no"?><!DOCTYPE svg PUBLIC "-//W3C//DTD SVG 1.1//EN" "http://www.w3.org/Graphics/SVG/1.1/DTD/svg11.dtd"><svg t="1512477075144" class="icon" style="" viewBox="0 0 1024 1024" version="1.1" xmlns="http://www.w3.org/2000/svg" p-id="3019" xmlns:xlink="http://www.w3.org/1999/xlink" width="200" height="200"><defs><style type="text/css"></style></defs><path d="M115.8144 727.6544c17.5104 77.9264 85.7088 136.0384 167.168 136.0384 94.72 0 171.52-78.592 171.52-175.5136s-76.8-175.5136-171.52-175.5136c-16.128 0-31.744 2.304-46.592 6.5536-9.9328-2.304-22.7328-31.0272 8.448-90.624 34.048-65.024 117.504-130.7648 150.1696-146.3808 32.6656-15.5648 44.4416-32.8704 40.7552-53.6576-3.6352-20.7872-26.5216-28.2112-51.712-21.1456-53.504 15.0528-174.8992 93.3888-222.9248 187.392-58.624 114.8928-72.6016 240.384-45.312 332.8512zM576.6144 727.6544c17.5104 77.9264 85.7088 136.0384 167.168 136.0384 94.72 0 171.52-78.592 171.52-175.5136s-76.8-175.5136-171.52-175.5136c-16.128 0-31.744 2.304-46.592 6.5536-9.9328-2.304-22.7328-31.0272 8.448-90.624 34.048-65.024 117.504-130.7648 150.1696-146.3808 32.6656-15.5648 44.4416-32.8704 40.7552-53.6576-3.6352-20.7872-26.5216-28.2112-51.712-21.1456-53.504 15.0528-174.8992 93.3888-222.9248 187.392-58.624 114.8928-72.6016 240.384-45.312 332.8512z" p-id="3020"></path></svg>