<?xml version="1.0" standalone="no"?><!DOCTYPE svg PUBLIC "-//W3C//DTD SVG 1.1//EN" "http://www.w3.org/Graphics/SVG/1.1/DTD/svg11.dtd"><svg t="1512525359945" class="icon" style="" viewBox="0 0 1024 1024" version="1.1" xmlns="http://www.w3.org/2000/svg" p-id="1025" xmlns:xlink="http://www.w3.org/1999/xlink" width="200" height="200"><defs><style type="text/css"></style></defs><path d="M940.544 507.1872l-214.1696-179.712a32.3072 32.3072 0 0 0-41.5232 49.5104l191.744 160.8704-192.512 161.536a32 32 0 0 0 41.1648 48.9984l223.232-187.2896a32 32 0 0 0 3.9424-45.056 31.8464 31.8464 0 0 0-11.8272-8.8576z m-793.1392 30.72l191.744-160.9728a32.3072 32.3072 0 0 0-41.5232-49.5104l-214.2208 179.712a32 32 0 0 0-7.936 53.9136l223.232 187.392a32 32 0 1 0 41.1136-49.0496h0.0512l-192.512-161.536z m427.3152-388.4032c17.408 3.072 29.0304 19.6608 25.9584 37.0688L483.9936 848.3328a32 32 0 1 1-62.976-11.1104L537.6 175.4624a32 32 0 0 1 37.0688-25.9584z" p-id="1026"></path></svg>