<?xml version="1.0" standalone="no"?><!DOCTYPE svg PUBLIC "-//W3C//DTD SVG 1.1//EN" "http://www.w3.org/Graphics/SVG/1.1/DTD/svg11.dtd"><svg t="1512477134693" class="icon" style="" viewBox="0 0 1024 1024" version="1.1" xmlns="http://www.w3.org/2000/svg" p-id="3370" xmlns:xlink="http://www.w3.org/1999/xlink" width="200" height="200"><defs><style type="text/css"></style></defs><path d="M384 192h576v64H384V192z m0 320h576v64H384V512z m0 320h576v64H384v-64zM142.272 64h33.6v292.48H131.2V117.632A159.872 159.872 0 0 1 64 154.496v-44.224A170.112 170.112 0 0 0 142.272 64z m10.112 320c23.36 0 43.008 6.528 58.112 20.288 14.784 13.76 22.336 31.296 22.336 52.992 0 21.312-8.256 40.576-24.064 58.112-9.6 9.984-26.496 23.04-50.88 39.552-26.496 17.536-42.304 33.024-47.488 46.4h122.752v33.024H64c0-24.448 7.936-45.76 24.448-64.32 8.96-10.688 27.52-25.472 55.36-44.736 16.512-11.712 28.224-20.992 35.072-28.224 11.008-12.352 16.832-25.792 16.832-40.256 0-13.76-3.776-24.064-11.328-30.976-7.552-6.848-18.944-10.304-33.344-10.304-15.488 0-27.136 5.184-35.072 15.808-8.256 10.304-12.352 25.088-13.056 45.056h-37.504c0.32-27.52 8.256-49.536 23.744-66.048 15.744-17.792 37.12-26.368 63.232-26.368z m1.984 320c24.64 0 44.16 5.824 59.2 17.792 14.4 11.968 21.888 28.416 21.888 49.28 0 26.688-13.696 44.864-40.384 53.76 14.4 4.48 25.344 11.264 32.832 20.224a51.84 51.84 0 0 1 12.352 35.584c0 22.592-7.872 41.088-23.296 55.424-16.448 14.4-38.016 21.888-64 21.888-24.96 0-45.184-6.528-60.224-19.136-17.088-14.4-26.688-35.264-28.736-62.656h37.632c0.704 16.448 5.824 29.12 16.064 38.016a49.536 49.536 0 0 0 34.88 12.352 53.888 53.888 0 0 0 38.016-13.696 41.344 41.344 0 0 0 12.672-30.464c0-14.4-4.48-24.96-13.376-31.808-8.192-6.848-20.544-10.24-36.608-10.24h-17.792v-28.16h17.472c15.04 0 26.368-3.392 33.856-9.92a35.84 35.84 0 0 0 11.648-28.416c0-12.352-3.776-21.568-10.624-28.096-7.552-6.848-18.816-9.92-33.216-9.92-14.72 0-26.368 3.776-34.56 11.264s-13.376 18.816-14.72 33.856h-36.608c2.048-24.32 10.944-43.136 27.008-56.832 15.168-13.568 34.624-20.096 58.624-20.096z" fill="" p-id="3371"></path></svg>