<?xml version="1.0" standalone="no"?><!DOCTYPE svg PUBLIC "-//W3C//DTD SVG 1.1//EN" "http://www.w3.org/Graphics/SVG/1.1/DTD/svg11.dtd"><svg t="1512477169945" class="icon" style="" viewBox="0 0 1024 1024" version="1.1" xmlns="http://www.w3.org/2000/svg" p-id="3905" xmlns:xlink="http://www.w3.org/1999/xlink" width="200" height="200"><defs><style type="text/css"></style></defs><path d="M819.9 196.1l-2.9-2.9c-66.4-66.4-174.9-66.4-241.3 0L422 347c-66.3 66.4-70 162.2-3.6 228.6l2.8 2.8c3 3 6.1 5.9 9.3 8.6 2.3 2.6 5 4.8 8.1 6.5 0 0 0 0.1 0.1 0.1 4.8 2.8 10.4 4.4 16.3 4.4 18.1 0 32.8-14.7 32.8-32.8 0-5.1-1.2-10-3.3-14.3-4.3-9.8-12.5-15.7-18.1-21.3l-2.8-2.8c-36-36-22.4-88.4 13.7-124.4l153.8-153.7c35.9-36 94.5-36 130.6 0l2.9 2.8c36 36 36 94.7 0 130.7L696.9 450c-9.2 6.8-15.2 17.8-15.2 30.1 0 20.7 16.8 37.5 37.5 37.5 7.2 0 13.9-2 19.6-5.5 0 0.1 0.1 0.1 0.1 0.2l1-1c3.3-2.2 6.1-4.8 8.5-7.9l71.4-65.9c66.5-66.5 66.5-175.1 0.1-241.4" p-id="3906"></path><path d="M598.3 421.6c-5.5-5.5-11.4-10.5-17.5-15.1-6.2-6-14.8-9.7-24.1-9.7-19.2 0-34.8 15.5-34.8 34.8 0 8.5 3.1 16.3 8.1 22.3 2.4 2.9 5.3 5.4 8.6 7.4 3.3 2.7 6.5 5.4 9.5 8.4l2.9 2.9c36 36 25.3 98-10.8 134L386.5 760.2c-36 36-94.6 36-130.7 0l-2.9-2.9c-36-36-36-94.7 0-130.6l67.9-67.9c8.7-6.9 14.3-17.6 14.3-29.6 0-20.9-16.9-37.8-37.8-37.8-7.9 0-15.2 2.4-21.2 6.5 0-0.1-0.1-0.1-0.1-0.1l-0.7 0.7c-2.7 1.9-5.1 4.2-7.2 6.7l-70.6 66.1c-66.3 66.4-66.3 175 0 241.3l2.9 2.9c66.3 66.3 174.9 66.3 241.3 0l153.7-153.8c66.3-66.3 71.9-171 5.6-237.4l-2.7-2.7z" p-id="3907"></path></svg>