<?xml version="1.0" standalone="no"?><!DOCTYPE svg PUBLIC "-//W3C//DTD SVG 1.1//EN" "http://www.w3.org/Graphics/SVG/1.1/DTD/svg11.dtd"><svg t="1512477266131" class="icon" style="" viewBox="0 0 1024 1024" version="1.1" xmlns="http://www.w3.org/2000/svg" p-id="4583" xmlns:xlink="http://www.w3.org/1999/xlink" width="200" height="200"><defs><style type="text/css"></style></defs><path d="M880 144h-736v684.8l188.8-252.8c12.8-16 35.2-16 51.2-6.4l144 131.2 284.8-377.6c12.8-16 35.2-16 51.2-6.4l16 12.8v-185.6z m80 742.4c0 41.6-32 73.6-73.6 73.6h-748.8c-41.6 0-73.6-32-73.6-73.6v-748.8c0-41.6 32-73.6 73.6-73.6h748.8c41.6 0 73.6 32 73.6 73.6v748.8z m-601.6-659.2c64 0 112 51.2 112 112s-51.2 112-112 112c-64 0-112-51.2-112-112-3.2-60.8 48-112 112-112z" fill="#BEC7D4" p-id="4584"></path></svg>