<?xml version="1.0" standalone="no"?><!DOCTYPE svg PUBLIC "-//W3C//DTD SVG 1.1//EN" "http://www.w3.org/Graphics/SVG/1.1/DTD/svg11.dtd"><svg t="1512477302986" class="icon" style="" viewBox="0 0 1024 1024" version="1.1" xmlns="http://www.w3.org/2000/svg" p-id="4887" xmlns:xlink="http://www.w3.org/1999/xlink" width="200" height="200"><defs><style type="text/css"></style></defs><path d="M947.2 390.826667l-409.6 454.371555-300.771556-281.6 454.371556-492.771555 262.371556 243.2-6.371556 76.8z m-492.771556 550.4H287.971556l-217.6-198.428445L179.2 621.226667l307.2 281.6-32.028444 38.4zM1024 307.598222c0-12.8-6.428444-19.171556-12.8-25.6L729.6 19.626667C716.8 6.826667 704 0.398222 691.2 0.398222c-19.228444 0-32.028444 6.428444-44.771556 19.228445L19.228444 698.026667c-12.856889 12.8-19.228444 25.6-19.228444 44.771555 0 19.228444 6.428444 32.028444 19.228444 44.828445L256 1005.226667c6.371556 6.371556 12.8 6.371556 25.6 6.371555h723.228444v-70.371555H550.4l454.428444-512c6.371556-6.428444 6.371556-12.8 6.371556-19.228445l12.8-102.4z" fill="#333333" p-id="4888"></path></svg>